<svg width="118" height="138" viewBox="0 0 118 138" fill="none" xmlns="http://www.w3.org/2000/svg">
<path d="M114.208 24.8333C104.767 22.3134 95.5425 19.039 86.6251 15.0417C77.8519 11.2359 69.3827 6.76452 61.2917 1.66667L59.0001 0.25L56.7501 1.70833C48.6591 6.80618 40.1899 11.2776 31.4167 15.0833C22.4846 19.0685 13.2465 22.329 3.79175 24.8333L0.666748 25.625V60.375C0.666748 116.167 57.0417 137.042 57.5834 137.25L59.0001 137.75L60.4167 137.25C61.0001 137.25 117.333 116.208 117.333 60.375V25.625L114.208 24.8333ZM95.1667 52.5417L48.6251 97.75L22.2917 71.375C21.1867 70.2699 20.5659 68.7711 20.5659 67.2083C20.5659 65.6455 21.1867 64.1467 22.2917 63.0417C23.3968 61.9366 24.8956 61.3158 26.4584 61.3158C28.0212 61.3158 29.52 61.9366 30.6251 63.0417L48.7501 81.5L87.0417 44C87.5889 43.4528 88.2385 43.0188 88.9534 42.7227C89.6683 42.4265 90.4346 42.2741 91.2084 42.2741C91.9822 42.2741 92.7485 42.4265 93.4634 42.7227C94.1783 43.0188 94.8279 43.4528 95.3751 44C95.9223 44.5472 96.3563 45.1968 96.6524 45.9117C96.9486 46.6266 97.101 47.3928 97.101 48.1667C97.101 48.9405 96.9486 49.7067 96.6524 50.4216C96.3563 51.1366 95.9223 51.7862 95.3751 52.3333L95.1667 52.5417Z" fill="url(#paint0_linear_9_3)"/>
<defs>
<linearGradient id="paint0_linear_9_3" x1="59.0001" y1="0.25" x2="59" y2="160" gradientUnits="userSpaceOnUse">
<stop offset="0.201818" stop-color="#61FFCA"/>
<stop offset="1" stop-color="#3D9F6A"/>
</linearGradient>
</defs>
</svg>
